# xmcd
#
# Track frame offsets:
#	150
#	21890
#	43968
#	74000
#	102753
#	130080
#	156033
#	176780
#	202355
#	222208
#
# Disc length: 3332 seconds
#
# Revision: 1
# Processed by: cddbd v1.5.1PL2 Copyright (c) Steve Scherf et al.
# Submitted via: audiograbber 1.83.01
#
DISCID=990d020a
DTITLE=Garth Webber Chris Cobb Dave Goodman - S.F. Blues Guitar Summit-Vol. 2
DYEAR=1993
DGENRE=Blues
TTITLE0=Overdrawn On Luck
TTITLE1=You Saved Me
TTITLE2=Albert's Blues
TTITLE3=First Come, First Served
TTITLE4=Looks Ain't Everything
TTITLE5=Turning Your Love Away
TTITLE6=Wish You Were Mine
TTITLE7=King Of The Hill
TTITLE8=Worried About You
TTITLE9=Hurtin' Again
EXTD=
EXTT0=
EXTT1=
EXTT2=
EXTT3=
EXTT4=
EXTT5=
EXTT6=
EXTT7=
EXTT8=
EXTT9=
PLAYORDER=
